<svg version="1.1" viewBox="0.0 0.0 600.6456692913385 517.8267716535433" fill="none" stroke="none" stroke-linecap="square" stroke-miterlimit="10" xmlns:xlink="http://www.w3.org/1999/xlink" xmlns="http://www.w3.org/2000/svg"><clipPath id="p.0"><path d="m0 0l600.6457 0l0 517.8268l-600.6457 0l0 -517.8268z" clip-rule="nonzero"/></clipPath><g clip-path="url(#p.0)"><path fill="#000000" fill-opacity="0.0" d="m0 0l600.6457 0l0 517.8268l-600.6457 0z" fill-rule="evenodd"/><path fill="#ffffff" d="m9.490813 362.93176l583.21265 0l0 150.36218l-583.21265 0z" fill-rule="evenodd"/><path stroke="#000000" stroke-width="1.0" stroke-linejoin="round" stroke-linecap="butt" d="m9.490813 362.93176l583.21265 0l0 150.36218l-583.21265 0z" fill-rule="evenodd"/><path fill="#b7b7b7" d="m189.9895 362.23883l204.44095 0l0 151.74805l-204.44095 0z" fill-rule="evenodd"/><path fill="#ffffff" d="m237.82152 107.69554l0 0c0 -29.179771 23.654892 -52.83465 52.83464 -52.83465l0 0c14.012634 0 27.451324 5.56649 37.35974 15.474907c9.908417 9.908417 15.474915 23.347122 15.474915 37.35974l0 0c0 29.179764 -23.654877 52.83464 -52.834656 52.83464l0 0c-29.179749 0 -52.83464 -23.654877 -52.83464 -52.83464z" fill-rule="evenodd"/><path fill="#ffffff" d="m218.84514 221.60892l0 0c0 -39.660126 32.150894 -71.81102 71.81102 -71.81102l0 0c19.045471 0 37.310883 7.5657806 50.778076 21.032959c13.467163 13.467178 21.032959 31.732605 21.032959 50.77806l0 0c0 39.660126 -32.15088 71.811035 -71.811035 71.811035l0 0c-39.660126 0 -71.81102 -32.15091 -71.81102 -71.811035z" fill-rule="evenodd"/><path fill="#ffffff" d="m186.90814 360.0l0 0c0 -57.298462 46.44957 -103.74802 103.74802 -103.74802l0 0c27.515686 0 53.90442 10.930542 73.36093 30.387085c19.456543 19.456512 30.387115 45.845245 30.387115 73.36093l0 0c0 57.298462 -46.449585 103.74802 -103.74805 103.74802l0 0c-57.298447 0 -103.74802 -46.449554 -103.74802 -103.74802z" fill-rule="evenodd"/><path fill="#e69138" d="m298.78217 103.350395l31.370056 8.125984l-31.370056 8.125984z" fill-rule="evenodd"/><path stroke="#000000" stroke-width="1.0" stroke-linejoin="round" stroke-linecap="butt" d="m298.78217 103.350395l31.370056 8.125984l-31.370056 8.125984z" fill-rule="evenodd"/><path fill="#000000" d="m274.74802 87.41732l0 0c0 -3.0179977 2.4465942 -5.4645615 5.464569 -5.4645615l0 0c1.4493103 0 2.8392334 0.57572937 3.8640442 1.6005325c1.0248108 1.0248032 1.6005249 2.4147415 1.6005249 3.864029l0 0c0 3.0179977 -2.4465637 5.464569 -5.464569 5.464569l0 0c-3.0179749 0 -5.464569 -2.4465714 -5.464569 -5.464569z" fill-rule="evenodd"/><path stroke="#000000" stroke-width="0.6719160104986877" stroke-linejoin="round" stroke-linecap="butt" d="m274.74802 87.41732l0 0c0 -3.0179977 2.4465942 -5.4645615 5.464569 -5.4645615l0 0c1.4493103 0 2.8392334 0.57572937 3.8640442 1.6005325c1.0248108 1.0248032 1.6005249 2.4147415 1.6005249 3.864029l0 0c0 3.0179977 -2.4465637 5.464569 -5.464569 5.464569l0 0c-3.0179749 0 -5.464569 -2.4465714 -5.464569 -5.464569z" fill-rule="evenodd"/><path fill="#000000" d="m295.63342 87.41732l0 0c0 -3.0179977 2.4465637 -5.4645615 5.464569 -5.4645615l0 0c1.4493103 0 2.8392334 0.57572937 3.8640442 1.6005325c1.0248108 1.0248032 1.6005249 2.4147415 1.6005249 3.864029l0 0c0 3.0179977 -2.4465637 5.464569 -5.464569 5.464569l0 0c-3.0180054 0 -5.464569 -2.4465714 -5.464569 -5.464569z" fill-rule="evenodd"/><path stroke="#000000" stroke-width="0.6719160104986877" stroke-linejoin="round" stroke-linecap="butt" d="m295.63342 87.41732l0 0c0 -3.0179977 2.4465637 -5.4645615 5.464569 -5.4645615l0 0c1.4493103 0 2.8392334 0.57572937 3.8640442 1.6005325c1.0248108 1.0248032 1.6005249 2.4147415 1.6005249 3.864029l0 0c0 3.0179977 -2.4465637 5.464569 -5.464569 5.464569l0 0c-3.0180054 0 -5.464569 -2.4465714 -5.464569 -5.464569z" fill-rule="evenodd"/><path fill="#000000" d="m282.53018 203.02493l0 0c0 -4.487854 3.6381226 -8.125977 8.125977 -8.125977l0 0c2.1551514 0 4.2220154 0.8561249 5.745941 2.3800354c1.5239258 1.5239258 2.380066 3.590805 2.380066 5.745941l0 0c0 4.487854 -3.638153 8.125992 -8.126007 8.125992l0 0c-4.487854 0 -8.125977 -3.6381378 -8.125977 -8.125992z" fill-rule="evenodd"/><path stroke="#000000" stroke-width="1.0" stroke-linejoin="round" stroke-linecap="butt" d="m282.53018 203.02493l0 0c0 -4.487854 3.6381226 -8.125977 8.125977 -8.125977l0 0c2.1551514 0 4.2220154 0.8561249 5.745941 2.3800354c1.5239258 1.5239258 2.380066 3.590805 2.380066 5.745941l0 0c0 4.487854 -3.638153 8.125992 -8.126007 8.125992l0 0c-4.487854 0 -8.125977 -3.6381378 -8.125977 -8.125992z" fill-rule="evenodd"/><path fill="#000000" d="m282.53018 248.12599l0 0c0 -4.4878693 3.6381226 -8.125992 8.125977 -8.125992l0 0c2.1551514 0 4.2220154 0.8561249 5.745941 2.3800507c1.5239258 1.5239105 2.380066 3.5907898 2.380066 5.745941l0 0c0 4.487854 -3.638153 8.125992 -8.126007 8.125992l0 0c-4.487854 0 -8.125977 -3.6381378 -8.125977 -8.125992z" fill-rule="evenodd"/><path stroke="#000000" stroke-width="1.0" stroke-linejoin="round" stroke-linecap="butt" d="m282.53018 248.12599l0 0c0 -4.4878693 3.6381226 -8.125992 8.125977 -8.125992l0 0c2.1551514 0 4.2220154 0.8561249 5.745941 2.3800507c1.5239258 1.5239105 2.380066 3.5907898 2.380066 5.745941l0 0c0 4.487854 -3.638153 8.125992 -8.126007 8.125992l0 0c-4.487854 0 -8.125977 -3.6381378 -8.125977 -8.125992z" fill-rule="evenodd"/><path fill="#000000" d="m282.53018 293.2257l0 0c0 -4.487854 3.6381226 -8.125977 8.125977 -8.125977l0 0c2.1551514 0 4.2220154 0.85614014 5.745941 2.380066c1.5239258 1.5238953 2.380066 3.5907898 2.380066 5.7459106l0 0c0 4.4878845 -3.638153 8.126007 -8.126007 8.126007l0 0c-4.487854 0 -8.125977 -3.6381226 -8.125977 -8.126007z" fill-rule="evenodd"/><path stroke="#000000" stroke-width="1.0" stroke-linejoin="round" stroke-linecap="butt" d="m282.53018 293.2257l0 0c0 -4.487854 3.6381226 -8.125977 8.125977 -8.125977l0 0c2.1551514 0 4.2220154 0.85614014 5.745941 2.380066c1.5239258 1.5238953 2.380066 3.5907898 2.380066 5.7459106l0 0c0 4.4878845 -3.638153 8.126007 -8.126007 8.126007l0 0c-4.487854 0 -8.125977 -3.6381226 -8.125977 -8.126007z" fill-rule="evenodd"/><path fill="#000000" fill-opacity="0.0" d="m275.36777 114.806175c2.1878662 3.3117218 7.3111267 18.167976 13.127258 19.870323c5.8161316 1.7023621 18.141266 -8.046814 21.769531 -9.656181" fill-rule="evenodd"/><path stroke="#000000" stroke-width="4.0" stroke-linejoin="round" stroke-linecap="butt" d="m275.36777 114.806175c2.1878662 3.3117218 7.3111267 18.167976 13.127258 19.870323c5.8161316 1.7023621 18.141266 -8.046814 21.769531 -9.656181" fill-rule="evenodd"/><path fill="#000000" fill-opacity="0.0" d="m358.97113 211.15224l69.543304 -76.157486" fill-rule="evenodd"/><path stroke="#b45f06" stroke-width="4.0" stroke-linejoin="round" stroke-linecap="butt" d="m358.97113 211.15224l69.543304 -76.157486" fill-rule="evenodd"/><path fill="#000000" fill-opacity="0.0" d="m411.72964 153.17848l0.6929321 -27.968506" fill-rule="evenodd"/><path stroke="#b45f06" stroke-width="4.0" stroke-linejoin="round" stroke-linecap="butt" d="m411.72964 153.17848l0.6929321 -27.968506" fill-rule="evenodd"/><path fill="#000000" fill-opacity="0.0" d="m413.12598 153.17848l32.1575 -6.2992096" fill-rule="evenodd"/><path stroke="#b45f06" stroke-width="4.0" stroke-linejoin="round" stroke-linecap="butt" d="m413.12598 153.17848l32.1575 -6.2992096" fill-rule="evenodd"/><path fill="#000000" fill-opacity="0.0" d="m228.83398 216.64774l-51.181107 -89.51181" fill-rule="evenodd"/><path stroke="#b45f06" stroke-width="4.0" stroke-linejoin="round" stroke-linecap="butt" d="m228.83398 216.64774l-51.181107 -89.51181" fill-rule="evenodd"/><path fill="#000000" fill-opacity="0.0" d="m189.80156 148.67062l-26.425201 -9.1653595" fill-rule="evenodd"/><path stroke="#b45f06" stroke-width="4.0" stroke-linejoin="round" stroke-linecap="butt" d="m189.80156 148.67062l-26.425201 -9.1653595" fill-rule="evenodd"/><path fill="#000000" fill-opacity="0.0" d="m190.22914 147.34138l3.8425293 -32.53544" fill-rule="evenodd"/><path stroke="#b45f06" stroke-width="4.0" stroke-linejoin="round" stroke-linecap="butt" d="m190.22914 147.34138l3.8425293 -32.53544" fill-rule="evenodd"/></g></svg>